<svg width="18" height="16" viewBox="0 0 18 16" fill="none" xmlns="http://www.w3.org/2000/svg">
<path d="M11.6 0.676252C13.4 0.176252 14.8 0.976252 15.4 1.87625C16.1 1.67625 16.8 1.37625 17.5 1.17625C17.5 2.07625 16.9 2.67625 16.6 2.97625C17.3 3.07625 18 2.37625 18 2.37625C17.8 3.37625 16.9 4.17625 16.3 4.37625C16.1 11.1763 13 15.5763 5.7 15.4763C5.1 15.4763 5.8 15.4763 5.2 15.4763C4.8 15.4763 0.8 14.9763 0 13.5763C2.4 13.7763 4.1 13.1763 5 12.3763C4 12.0763 2.1 11.9763 1.8 9.47625C2.2 9.57625 2.4 9.67625 3.1 9.57625C1.8 8.77625 0.4 7.97625 0.5 5.77625C0.8 6.07625 1.6 6.27625 1.9 6.27625C1.1 6.07625 -0.2 2.97625 0.9 1.37625C2.8 3.27625 4.9 4.97625 8.5 5.17625C8.7 2.77625 9.7 1.27625 11.6 0.676252Z" fill="#68A2CA"/>
</svg>
